<?xml version="1.0" encoding="UTF-8"?><svg xmlns="http://www.w3.org/2000/svg" viewBox="0 0 269.53 69.36"><defs><style>.d{fill:#fff;}.d,.e{fill-rule:evenodd;}.e{fill:#00aa13;}</style></defs><g id="a"/><g id="b"><g id="c"><g><g><path class="e" d="M32.22,.04C14.99,.83,.97,14.75,.05,31.97c-.75,14.14,7.18,26.51,18.95,32.25,4.39,2.14,9.6-.55,10.45-5.36h0c.57-3.24-1.08-6.45-4.03-7.89-6.69-3.28-11.18-10.37-10.65-18.44,.62-9.44,8.26-17.11,17.7-17.76,11.16-.77,20.46,8.05,20.46,19.05,0,7.55-4.38,14.07-10.74,17.17-2.9,1.42-4.49,4.61-3.93,7.79l.03,.16c.83,4.73,5.95,7.42,10.27,5.33,11.3-5.47,19.1-17.05,19.1-30.45C67.65,14.61,51.63-.86,32.22,.04Z"/><path class="e" d="M33.86,45.74c-6.57,0-11.91-5.34-11.91-11.91s5.34-11.91,11.91-11.91,11.91,5.34,11.91,11.91-5.34,11.91-11.91,11.91Z"/></g><path class="d" d="M217.64,39.18c-.32-.18-.73-.09-.93,.22-1.89,2.89-5.16,4.81-8.88,4.81-4.91,0-9.03-3.33-10.25-7.85h28.67c.35,0,.65-.26,.69-.61,.08-.71,.12-1.43,.12-2.16,0-10.92-9.11-19.72-20.14-19.21-9.85,.45-17.85,8.45-18.3,18.3-.51,11.03,8.29,20.14,19.21,20.14,6.88,0,12.91-3.61,16.3-9.04,.21-.34,.11-.78-.24-.98l-6.26-3.62Zm-9.81-16.2c4.38,0,8.14,2.66,9.76,6.45h-19.53c1.62-3.79,5.38-6.45,9.76-6.45Z"/><path class="d" d="M150.27,14.48c-10.61,0-19.21,8.6-19.21,19.21s8.6,19.21,19.21,19.21,19.21-8.6,19.21-19.21-8.6-19.21-19.21-19.21Zm0,29.79c-5.84,0-10.58-4.74-10.58-10.58s4.74-10.58,10.58-10.58,10.58,4.74,10.58,10.58-4.74,10.58-10.58,10.58Z"/><path class="d" d="M182.89,15.01h-7.69c-.36,0-.65,.27-.69,.61V51.03c0,3.26-1.13,5.92-3.28,7.7-1.4,1.16-3.22,1.93-5.25,2.24-.34,.05-.59,.34-.59,.69v7c0,.39,.31,.7,.7,.7h.08c9.6,0,17.38-7.78,17.38-17.38l.04-36.28c0-.39-.31-.7-.7-.7Z"/><path class="d" d="M125.25,15h-7.69c-.39,0-.7,.31-.7,.7v.93h0v1.51c-1.37-1.59-3.54-2.47-4.4-2.77-1.94-.65-4.01-1-6.16-.99-10.46,.03-19.06,8.53-19.21,18.99-.15,10.77,8.53,19.55,19.27,19.55,2.14,0,4.21-.35,6.13-1,.88-.31,3.02-1.19,4.38-2.76v1.5h0v.36c0,3.26-1.13,5.92-3.28,7.7-1.86,1.55-4.47,2.4-7.35,2.4h0c-4.18,0-8.19-1.71-10.54-4.44-.26-.3-.72-.32-1.01-.04l-5.1,4.97c-.28,.27-.28,.71-.01,.99,4.34,4.44,9.98,6.71,16.77,6.75h2.17c9.6,0,17.38-7.78,17.38-17.38v-3.39s0-.05,0-.08l.04-32.81c0-.39-.31-.7-.7-.7Zm-8.39,18.76c-.06,5.75-4.74,10.39-10.5,10.39s-10.5-4.7-10.5-10.5,4.7-10.5,10.5-10.5,10.44,4.64,10.5,10.39v.22Z"/><path class="d" d="M259.48,52.24c-.12,0-.24-.06-.31-.16l-11.83-15.89-6.23,6.06v9.54c0,.21-.17,.39-.39,.39h-8.26c-.21,0-.39-.17-.39-.39V4.08c0-.21,.17-.39,.39-.39h8.26c.21,0,.39,.17,.39,.39V30.49l15.9-15.36c.07-.07,.17-.11,.27-.11h10.95c.24,0,.33,.18,.36,.24,.02,.06,.08,.25-.09,.42l-14.98,14.53,15.94,21.41c.09,.12,.1,.27,.03,.4-.07,.13-.2,.21-.34,.21h-9.66Z"/></g></g></g></svg>